<svg version="1.1" viewBox="0 0 1182.3 358.71" xmlns="http://www.w3.org/2000/svg" xmlns:xlink="http://www.w3.org/1999/xlink">
  <defs>
    <linearGradient id="linearGradient4823">
      <stop style="stop-color:#f4aa17" offset="0"/>
      <stop style="stop-color:#e8661f" offset="1"/>
    </linearGradient>
    <linearGradient id="linearGradient4827-2" x1="407.11" x2="407.11" y1="151.02" y2="379.42" gradientUnits="userSpaceOnUse" xlink:href="#linearGradient4823"/>
    <linearGradient id="linearGradient4836-6" x1="407.04" x2="407.04" y1="322.93" y2="520.75" gradientUnits="userSpaceOnUse">
      <stop style="stop-color:#a6202d" offset="0"/>
      <stop style="stop-color:#e23434" offset="1"/>
    </linearGradient>
    <linearGradient id="linearGradient4844-5" x1="481.69" x2="568.92" y1="-97.631" y2="-10.409" gradientUnits="userSpaceOnUse" xlink:href="#linearGradient4823"/>
  </defs>
  <g transform="matrix(.94138 0 0 .94138 -204.25 -134.66)">
    <path d="m258.53 297.32-36.252 36.252 148.96 148.96 36.254 36.252 185.21-185.21-36.252-36.252-148.96 148.96z" style="fill:url(#linearGradient4836-6);stroke-width:5.115"/>
    <path d="m407.49 148.36-36.254 36.252-148.96 148.96 36.252 36.252 148.96-148.96 148.96 148.96 36.252-36.252-148.96-148.96z" style="fill:url(#linearGradient4827-2);stroke-width:5.115"/>
    <rect transform="rotate(45)" x="472.23" y="-78.154" width="103.55" height="51.269" style="fill:url(#linearGradient4844-5);stroke-width:3.2162"/>
  </g>
  <g transform="matrix(7.304 0 0 7.304 -202.44 -3886.7)" style="fill:#ffffff;font-feature-settings:normal;font-variant-caps:normal;font-variant-ligatures:normal;font-variant-numeric:normal" aria-label="FVGESTÃO">
    <path d="m89.868 554.4v3.48h-5.04v13.04h-3.84v-28.72h9.52v3.48h-5.68v8.72z" style="fill:#ffffff"/>
    <path d="m105.54 542.2-4.64 28.72h-4.56l-4.64-28.72h3.8l3.12 21.92 3.12-21.92z" style="fill:#ffffff"/>
    <path d="m113.27 560.4v-3.48h5.84v14h-7.52q-4.44 0-4.44-4.84v-18.96q0-4.92 4.44-4.92h2.64q4.88 0 4.88 5v3.12h-3.84v-2.56q0-2.08-1.64-2.08h-0.96q-1.68 0-1.68 2.08v17.6q0 2.08 1.68 2.08h2.6v-7.04z" style="fill:#ffffff"/>
    <path d="m122.24 570.92v-28.72h9.52v3.48h-5.68v8.72h5.04v3.48h-5.04v9.56h5.68v3.48z" style="fill:#ffffff"/>
    <path d="m141.86 549.92v-2.52q0-1.72-1.68-1.72h-0.6q-1.64 0-1.64 1.72v4.76q0 0.8 0.32 1.08t1.04 0.72l3.64 1.96q1.2 0.68 1.68 1.08 0.52 0.36 0.8 0.92 0.28 0.52 0.28 2.04v6.12q0 4.84-4.64 4.84h-2.36q-4.6 0-4.6-5.28v-1.44h3.84v1.56q0 1.68 1.72 1.68h0.68q1.52 0 1.52-1.68v-4.88q0-0.8-0.32-1.08t-1.04-0.72l-3.64-2.04q-1.2-0.64-1.76-1.08-0.52-0.44-0.76-1.12-0.24-0.72-0.24-1.84v-5.88q0-4.92 4.6-4.92h2.4q4.6 0 4.6 4.92v2.8z" style="fill:#ffffff"/>
    <path d="m155 545.68v25.24h-3.84v-25.24h-3.68v-3.48h11.2v3.48z" style="fill:#ffffff"/>
    <path d="m164.55 570.92h-3.84v-23.8q0-4.92 4.6-4.92h2.88q4.6 0 4.6 4.92v23.8h-3.84v-10.52h-4.4zm4.4-14v-9.56q0-1.68-1.68-1.68h-1.04q-1.68 0-1.68 1.68v9.56zm1.96-20.4q-0.04 1.76-0.96 2.68-0.92 0.88-2.12 0.92-0.44 0-0.8-0.12t-0.68-0.24q-0.28-0.16-0.56-0.28-0.24-0.16-0.56-0.16-0.75999 0-0.96 1h-1.96q0-1.72 0.84-2.56t2-0.92q0.4 0 0.72 0.12t0.64 0.28 0.64 0.28q0.32001 0.12 0.68 0.12 0.4-0.08 0.68-0.32 0.28-0.28 0.32-0.8z" style="fill:#ffffff"/>
    <path d="m180.66 570.92q-4.64 0-4.64-4.88v-18.92q0-4.92 4.6-4.92h3.68q4.6 0 4.6 4.92v18.92q0 4.88-4.64 4.88zm0.92-3.48h1.96q1.52 0 1.52-1.68v-18.4q0-1.68-1.72-1.68h-1.8q-1.68 0-1.68 1.68v18.4q0 1.68 1.72 1.68z" style="fill:#ffffff"/>
  </g>
  <g transform="matrix(1.3393 0 0 1.3393 333.47 -660.95)" style="fill:#ff9955;font-feature-settings:normal;font-variant-caps:normal;font-variant-ligatures:normal;font-variant-numeric:normal" aria-label="C U L T U R A  V E N C E D O R A">
    <path d="m72.786 741.55c-1.84 1.84-4.6 2.84-7.04 2.84-6.92 0-9.6-4.84-9.64-9.48-0.04-4.68 2.88-9.72 9.64-9.72 2.44 0 4.92 0.84 6.76 2.64l3.52-3.4c-2.88-2.84-6.48-4.28-10.28-4.28-10.12 0-14.88 7.44-14.84 14.76 0.04 7.28 4.44 14.44 14.84 14.44 4.04 0 7.76-1.32 10.64-4.16z" style=""/>
    <path d="m105.48 720.75v16.04c0 4.8-2.48 7.72-6.84 7.72-4.36 0-7.24-2.68-7.24-7.72v-16.04h-5.24v16.04c0 8.44 5.72 12.52 12.44 12.52 7.04 0 12.12-4.24 12.12-12.52v-16.04z" style=""/>
    <path d="m123.89 720.71v28h19.68v-4.88h-14.4v-23.12z" style=""/>
    <path d="m162.62 748.71h5.28v-23.2h8.88v-4.8h-23.04v4.8h8.88z" style=""/>
    <path d="m207.35 720.75v16.04c0 4.8-2.48 7.72-6.84 7.72s-7.24-2.68-7.24-7.72v-16.04h-5.24v16.04c0 8.44 5.72 12.52 12.44 12.52 7.04 0 12.12-4.24 12.12-12.52v-16.04z" style=""/>
    <path d="m250.61 748.35-8.48-9.56c5.32-1.08 7.08-4.96 7.08-8.8 0-4.84-3.48-9.24-10.08-9.28-4.44 0-8.88-0.04-13.32-0.04v28.04h5.28v-9.36h5.08l8.16 9.36h6.28zm-11.48-22.72c3.32 0 4.8 2.24 4.8 4.48s-1.44 4.48-4.8 4.48h-8.04v-8.96z" style=""/>
    <path d="m283.09 748.71h5.76l-12.56-28h-5.76l-12.56 28h5.72l2.4-5.28h14.64zm-4.48-10.2h-10.4l5.2-11.92z" style=""/>
    <path d="m333.7 720.71h-5.92l-8.48 21.8-8.44-21.8h-5.92l11.64 28.12h5.48z" style=""/>
    <path d="m365.87 743.51h-15.72v-6.32h15.16v-4.92h-15.16v-6.44h15.72v-5.12h-20.96v28h20.96z" style=""/>
    <path d="m396.36 738.07-13.72-17.36h-4.28v28h5.28v-18.88l14.72 18.92v-0.04h3.28v-28.04h-5.28z" style=""/>
    <path d="m435.6 741.55c-1.84 1.84-4.6 2.84-7.04 2.84-6.92 0-9.6-4.84-9.64-9.48-0.04-4.68 2.88-9.72 9.64-9.72 2.44 0 4.92 0.84 6.76 2.64l3.52-3.4c-2.88-2.84-6.48-4.28-10.28-4.28-10.12 0-14.88 7.44-14.84 14.76 0.04 7.28 4.44 14.44 14.84 14.44 4.04 0 7.76-1.32 10.64-4.16z" style=""/>
    <path d="m469.85 743.51h-15.72v-6.32h15.16v-4.92h-15.16v-6.44h15.72v-5.12h-20.96v28h20.96z" style=""/>
    <path d="m492.58 720.71h-11v28h11c9.8 0 14.12-7.16 14-14.24-0.12-6.92-4.4-13.76-14-13.76zm-5.76 5h5.76c6.08 0 8.64 4.36 8.76 8.72 0.12 4.56-2.4 9.2-8.76 9.2h-5.76z" style=""/>
    <path d="m531.27 720.15c-9.68 0-14.4 7.4-14.4 14.76s4.56 14.44 14.4 14.44 14.28-7.24 14.36-14.48c0.08-7.32-4.72-14.72-14.36-14.72zm0 4.8c6.6 0 9.24 5.28 9.16 10-0.08 4.6-2.56 9.56-9.16 9.56s-9.08-4.92-9.2-9.52c-0.12-4.72 2.6-10.04 9.2-10.04z" style=""/>
    <path d="m582.41 748.35-8.48-9.56c5.32-1.08 7.08-4.96 7.08-8.8 0-4.84-3.48-9.24-10.08-9.28-4.44 0-8.88-0.04-13.32-0.04v28.04h5.28v-9.36h5.08l8.16 9.36h6.28zm-11.48-22.72c3.32 0 4.8 2.24 4.8 4.48s-1.44 4.48-4.8 4.48h-8.04v-8.96z" style=""/>
    <path d="m614.88 748.71h5.76l-12.56-28h-5.76l-12.56 28h5.72l2.4-5.28h14.64zm-4.48-10.2h-10.4l5.2-11.92z" style=""/>
  </g>
</svg>
